<?xml version="1.0" encoding="UTF-8" standalone="no" ?>
<!DOCTYPE svg PUBLIC "-//W3C//DTD SVG 1.1//EN" "http://www.w3.org/Graphics/SVG/1.1/DTD/svg11.dtd">
<svg xmlns="http://www.w3.org/2000/svg" xmlns:xlink="http://www.w3.org/1999/xlink" version="1.1" width="619" height="238" viewBox="0 0 619 238" xml:space="preserve">
<desc>Created with Fabric.js 3.6.6</desc>
<defs>
</defs>
<g transform="matrix(1 0 0 1 320 240)"  >
<g style=""   >
		<g transform="matrix(1 0 0 1 -200.4 -120.4)" id="katman_1"  >
<circle style="stroke: none; stroke-width: 1; stroke-dasharray: none; stroke-linecap: butt; stroke-dashoffset: 0; stroke-linejoin: miter; stroke-miterlimit: 4; fill: rgb(161,211,60); fill-rule: nonzero; opacity: 1;"  cx="0" cy="0" r="119" />
</g>
		<g transform="matrix(1 0 0 1 -226.65 -124.25)" id="katman_1"  >
<path style="stroke: none; stroke-width: 1; stroke-dasharray: none; stroke-linecap: butt; stroke-dashoffset: 0; stroke-linejoin: miter; stroke-miterlimit: 4; fill: rgb(255,255,255); fill-rule: nonzero; opacity: 1;"  transform=" translate(-183.35, -295.75)" d="M 180.3 346.3 c -1.9 6.2 -4.4 9.7 -12.7 9.7 c -7 0 -10.2 -2.7 -10.2 -7 c 0 -1.4 0.3 -3 0.8 -4.4 l 28.3 -99.4 c 1.9 -6.2 4.4 -9.7 12.5 -9.7 c 7.2 0 10.3 2.7 10.3 7 c 0 1.6 -0.5 3 -0.9 4.7 L 180.3 346.3 z" stroke-linecap="round" />
</g>
		<g transform="matrix(1 0 0 1 -172.25 -124.25)" id="katman_1"  >
<path style="stroke: none; stroke-width: 1; stroke-dasharray: none; stroke-linecap: butt; stroke-dashoffset: 0; stroke-linejoin: miter; stroke-miterlimit: 4; fill: rgb(255,255,255); fill-rule: nonzero; opacity: 1;"  transform=" translate(-237.75, -295.75)" d="M 234.7 346.3 c -1.9 6.2 -4.4 9.7 -12.7 9.7 c -7 0 -10.2 -2.7 -10.2 -7 c 0 -1.4 0.3 -3 0.8 -4.4 l 28.3 -99.4 c 1.9 -6.2 4.4 -9.7 12.5 -9.7 c 7.2 0 10.3 2.7 10.3 7 c 0 1.6 -0.5 3 -0.9 4.7 L 234.7 346.3 z" stroke-linecap="round" />
</g>
		<g transform="matrix(1 0 0 1 -9.85 -109.9)" id="katman_1"  >
<linearGradient id="SVGID_myGradient_6" gradientUnits="userSpaceOnUse" gradientTransform="matrix(1 0 0 1 0 0)"  x1="38.9416" y1="0" x2="38.9416" y2="75">
<stop offset="0%" style="stop-color:rgb(211,48,117);stop-opacity: 1"/>
<stop offset="100%" style="stop-color:rgb(97,87,216);stop-opacity: 1"/>
</linearGradient>
<path style="stroke: none; stroke-width: 1; stroke-dasharray: none; stroke-linecap: butt; stroke-dashoffset: 0; stroke-linejoin: miter; stroke-miterlimit: 4; fill: url(#SVGID_myGradient_6); fill-rule: nonzero; opacity: 1;"  transform=" translate(-400.15, -310.1)" d="M 405 340.8 c 0 1.6 0 2.7 -0.6 3.6 c -0.6 0.9 -2.2 1.7 -4.1 1.7 c -2 0 -3.6 -0.6 -4.2 -1.7 c -0.6 -0.9 -0.6 -2.2 -0.6 -3.6 v -58.1 h -19.4 c -1.4 0 -2.5 -0.2 -3.6 -0.8 c -0.9 -0.6 -1.4 -1.7 -1.4 -3.4 s 0.5 -3 1.4 -3.6 c 0.9 -0.6 2.2 -0.8 3.6 -0.8 h 48.1 c 1.4 0 2.5 0.2 3.6 0.8 c 0.9 0.6 1.4 1.7 1.4 3.4 s -0.5 3 -1.4 3.6 c -0.9 0.6 -2.2 0.8 -3.6 0.8 H 405 L 405 340.8 L 405 340.8 z" stroke-linecap="round" />
</g>
		<g transform="matrix(1 0 0 1 76.25 -110.25)" id="katman_1"  >
<linearGradient id="SVGID_myGradient_7" gradientUnits="userSpaceOnUse" gradientTransform="matrix(1 0 0 1 0 0)"  x1="38.9416" y1="0" x2="38.9416" y2="75">
<stop offset="0%" style="stop-color:rgb(211,48,117);stop-opacity: 1"/>
<stop offset="100%" style="stop-color:rgb(97,87,216);stop-opacity: 1"/>
</linearGradient>
<path style="stroke: none; stroke-width: 1; stroke-dasharray: none; stroke-linecap: butt; stroke-dashoffset: 0; stroke-linejoin: miter; stroke-miterlimit: 4; fill: url(#SVGID_myGradient_7); fill-rule: nonzero; opacity: 1;"  transform=" translate(-486.25, -309.75)" d="M 486.4 272.4 c 22.5 0 36.6 15.6 36.6 37.2 c 0 22 -14.4 37.5 -36.9 37.5 c -22.5 0 -36.6 -15.6 -36.6 -37.2 C 449.3 287.9 463.9 272.4 486.4 272.4 z M 486.4 338.8 c 16.2 0 26.7 -10.6 26.7 -29.1 c 0 -18.6 -10.6 -29.4 -26.9 -29.4 s -26.7 10.6 -26.7 29.1 C 459.3 328.2 469.8 338.8 486.4 338.8 z" stroke-linecap="round" />
</g>
		<g transform="matrix(1 0 0 1 169.55 -110.25)" id="katman_1"  >
<linearGradient id="SVGID_myGradient_8" gradientUnits="userSpaceOnUse" gradientTransform="matrix(1 0 0 1 0 0)"  x1="38.9416" y1="0" x2="38.9416" y2="75">
<stop offset="0%" style="stop-color:rgb(211,48,117);stop-opacity: 1"/>
<stop offset="100%" style="stop-color:rgb(97,87,216);stop-opacity: 1"/>
</linearGradient>
<path style="stroke: none; stroke-width: 1; stroke-dasharray: none; stroke-linecap: butt; stroke-dashoffset: 0; stroke-linejoin: miter; stroke-miterlimit: 4; fill: url(#SVGID_myGradient_8); fill-rule: nonzero; opacity: 1;"  transform=" translate(-579.55, -309.75)" d="M 596.2 339.1 c -8.9 5.8 -20.2 7 -30 7 c -6.6 0 -12 -0.5 -14.8 -1.4 s -3.1 -2.3 -3.1 -5.6 v -58.7 c 0 -3.6 0.9 -5 5.2 -5.9 c 3.1 -0.6 8.6 -1.1 14.8 -1.1 c 11.6 0 21.4 1.6 29.1 7 c 7.7 5.3 13.4 14.5 13.4 28.9 C 610.6 325 603.8 334 596.2 339.1 z M 557.9 337.4 c 0 0 3.6 0.5 9.8 0.5 c 9.7 0 33 -1.2 33 -28 c 0 -11.1 -4.1 -18.3 -9.7 -22.5 c -5.6 -4.4 -12.8 -5.8 -22.5 -5.8 c -6.9 0 -10.8 0.8 -10.8 0.8 L 557.9 337.4 L 557.9 337.4 z" stroke-linecap="round" />
</g>
		<g transform="matrix(1 0 0 1 262.45 -110.25)" id="katman_1"  >
<linearGradient id="SVGID_myGradient_9" gradientUnits="userSpaceOnUse" gradientTransform="matrix(1 0 0 1 0 0)"  x1="38.9416" y1="0" x2="38.9416" y2="75">
<stop offset="0%" style="stop-color:rgb(211,48,117);stop-opacity: 1"/>
<stop offset="100%" style="stop-color:rgb(97,87,216);stop-opacity: 1"/>
</linearGradient>
<path style="stroke: none; stroke-width: 1; stroke-dasharray: none; stroke-linecap: butt; stroke-dashoffset: 0; stroke-linejoin: miter; stroke-miterlimit: 4; fill: url(#SVGID_myGradient_9); fill-rule: nonzero; opacity: 1;"  transform=" translate(-672.45, -309.75)" d="M 672.6 272.4 c 22.5 0 36.6 15.6 36.6 37.2 c 0 22 -14.4 37.5 -36.9 37.5 s -36.6 -15.6 -36.6 -37.2 C 635.7 287.9 650.2 272.4 672.6 272.4 z M 672.6 338.8 c 16.2 0 26.7 -10.6 26.7 -29.1 c 0 -18.6 -10.6 -29.4 -26.9 -29.4 s -26.7 10.6 -26.7 29.1 C 645.7 328.2 656.3 338.8 672.6 338.8 z" stroke-linecap="round" />
</g>
</g>
</g>
</svg>