<?xml version="1.0" encoding="utf-8"?>
<!-- Generator: Adobe Illustrator 26.0.3, SVG Export Plug-In . SVG Version: 6.00 Build 0)  -->
<svg version="1.0" id="katman_1" xmlns="http://www.w3.org/2000/svg" xmlns:xlink="http://www.w3.org/1999/xlink" x="0px" y="0px"
	 viewBox="0 0 800 600" style="enable-background:new 0 0 800 600;" xml:space="preserve">
<style type="text/css">
	.st0{fill:#A1D33C;}
	.st1{fill:#FFFFFF;}
	.st2{fill:#231F20;}
</style>
<g>
	<circle class="st0" cx="209.6" cy="299.6" r="119"/>
	<g>
		<path class="st1" d="M180.3,346.3c-1.9,6.2-4.4,9.7-12.7,9.7c-7,0-10.2-2.7-10.2-7c0-1.4,0.3-3,0.8-4.4l28.3-99.4
			c1.9-6.2,4.4-9.7,12.5-9.7c7.2,0,10.3,2.7,10.3,7c0,1.6-0.5,3-0.9,4.7L180.3,346.3z"/>
		<path class="st1" d="M234.7,346.3c-1.9,6.2-4.4,9.7-12.7,9.7c-7,0-10.2-2.7-10.2-7c0-1.4,0.3-3,0.8-4.4l28.3-99.4
			c1.9-6.2,4.4-9.7,12.5-9.7c7.2,0,10.3,2.7,10.3,7c0,1.6-0.5,3-0.9,4.7L234.7,346.3z"/>
	</g>
	<g>
		<path class="st2" d="M405,340.8c0,1.6,0,2.7-0.6,3.6c-0.6,0.9-2.2,1.7-4.1,1.7c-2,0-3.6-0.6-4.2-1.7c-0.6-0.9-0.6-2.2-0.6-3.6
			v-58.1h-19.4c-1.4,0-2.5-0.2-3.6-0.8c-0.9-0.6-1.4-1.7-1.4-3.4s0.5-3,1.4-3.6c0.9-0.6,2.2-0.8,3.6-0.8h48.1c1.4,0,2.5,0.2,3.6,0.8
			c0.9,0.6,1.4,1.7,1.4,3.4s-0.5,3-1.4,3.6c-0.9,0.6-2.2,0.8-3.6,0.8H405L405,340.8L405,340.8z"/>
		<path class="st2" d="M486.4,272.4c22.5,0,36.6,15.6,36.6,37.2c0,22-14.4,37.5-36.9,37.5c-22.5,0-36.6-15.6-36.6-37.2
			C449.3,287.9,463.9,272.4,486.4,272.4z M486.4,338.8c16.2,0,26.7-10.6,26.7-29.1c0-18.6-10.6-29.4-26.9-29.4s-26.7,10.6-26.7,29.1
			C459.3,328.2,469.8,338.8,486.4,338.8z"/>
		<path class="st2" d="M596.2,339.1c-8.9,5.8-20.2,7-30,7c-6.6,0-12-0.5-14.8-1.4s-3.1-2.3-3.1-5.6v-58.7c0-3.6,0.9-5,5.2-5.9
			c3.1-0.6,8.6-1.1,14.8-1.1c11.6,0,21.4,1.6,29.1,7c7.7,5.3,13.4,14.5,13.4,28.9C610.6,325,603.8,334,596.2,339.1z M557.9,337.4
			c0,0,3.6,0.5,9.8,0.5c9.7,0,33-1.2,33-28c0-11.1-4.1-18.3-9.7-22.5c-5.6-4.4-12.8-5.8-22.5-5.8c-6.9,0-10.8,0.8-10.8,0.8
			L557.9,337.4L557.9,337.4z"/>
		<path class="st2" d="M672.6,272.4c22.5,0,36.6,15.6,36.6,37.2c0,22-14.4,37.5-36.9,37.5s-36.6-15.6-36.6-37.2
			C635.7,287.9,650.2,272.4,672.6,272.4z M672.6,338.8c16.2,0,26.7-10.6,26.7-29.1c0-18.6-10.6-29.4-26.9-29.4s-26.7,10.6-26.7,29.1
			C645.7,328.2,656.3,338.8,672.6,338.8z"/>
	</g>
</g>
</svg>
